<svg xmlns="http://www.w3.org/2000/svg" width="16" height="16"><path d="M7.71.617c-.866 0-1.573.633-1.573 1.406v.204c-2.274.597-3.946 2.48-3.946 4.718v4.22L.617 12.57v.703h6.7a4.1 4.1 0 0 1-.372-1.406H3.77V6.945c0-.933.414-1.828 1.156-2.488.738-.656 1.742-1.027 2.785-1.027 1.047 0 2.05.37 2.789 1.027.738.66 1.156 1.555 1.156 2.488q.197-.006.39 0c.4 0 .798.043 1.184.125v-.125c0-2.238-1.671-4.12-3.94-4.718v-.204c0-.773-.704-1.406-1.58-1.406m-1.573 13.36c0 .78.707 1.406 1.574 1.406.394 0 .766-.133 1.05-.352a4.7 4.7 0 0 1-1.027-1.054Zm0 0" style="stroke:none;fill-rule:nonzero;fill:#616161;fill-opacity:1"/><path d="M12.047 8.54c-1.844 0-3.336 1.331-3.336 2.976 0 1.644 1.492 2.976 3.336 2.976 1.848 0 3.336-1.332 3.336-2.976 0-1.645-1.488-2.977-3.336-2.977m0 5.456c-1.531 0-2.781-1.113-2.781-2.48 0-1.368 1.25-2.48 2.78-2.48 1.536 0 2.786 1.112 2.786 2.48s-1.25 2.48-2.785 2.48m0 0" style="stroke:none;fill-rule:nonzero;fill:#616161;fill-opacity:1"/><path d="M12.672 11.262h-.34v-1.164c0-.141-.125-.254-.285-.254-.156 0-.281.113-.281.254v1.418c0 .14.125.254.28.254h.626c.16 0 .285-.114.285-.254s-.129-.254-.285-.254m0 0" style="stroke:none;fill-rule:nonzero;fill:#616161;fill-opacity:1"/><path d="M12.53 1.003c-1.409 0-2.558 1.028-2.558 2.285v.33c-3.694.971-6.411 4.03-6.411 7.668v6.856l-2.558 2.285v1.142h10.886a6.7 6.7 0 0 1-.603-2.285h-5.16v-7.998c0-1.517.672-2.97 1.878-4.043 1.2-1.067 2.831-1.67 4.526-1.67 1.701 0 3.333.603 4.533 1.67 1.2 1.072 1.878 2.526 1.878 4.043.21-.006.426-.006.635 0 .648 0 1.295.07 1.924.203v-.203c0-3.637-2.717-6.697-6.405-7.668v-.33c0-1.257-1.143-2.285-2.565-2.285ZM9.972 22.712c0 1.27 1.15 2.285 2.558 2.285.641 0 1.244-.216 1.708-.571a7.6 7.6 0 0 1-1.67-1.714Zm0 0" style="fill:none;stroke-width:.492308;stroke-linecap:butt;stroke-linejoin:miter;stroke:#616161;stroke-opacity:1;stroke-miterlimit:4" transform="scale(.61538)"/><path d="M19.576 13.876c-2.996 0-5.42 2.165-5.42 4.837s2.424 4.837 5.42 4.837c3.003 0 5.421-2.165 5.421-4.837s-2.418-4.837-5.42-4.837Zm0 8.868c-2.488 0-4.52-1.81-4.52-4.031 0-2.222 2.032-4.03 4.52-4.03 2.495 0 4.526 1.808 4.526 4.03s-2.031 4.03-4.526 4.03Zm0 0" style="fill:none;stroke-width:.492308;stroke-linecap:butt;stroke-linejoin:miter;stroke:#616161;stroke-opacity:1;stroke-miterlimit:4" transform="scale(.61538)"/><path d="M20.592 18.3h-.552V16.41c0-.229-.204-.413-.464-.413-.254 0-.457.184-.457.413v2.304c0 .228.203.412.457.412h1.016c.26 0 .463-.184.463-.412 0-.229-.21-.413-.463-.413Zm0 0" style="fill:none;stroke-width:.492308;stroke-linecap:butt;stroke-linejoin:miter;stroke:#616161;stroke-opacity:1;stroke-miterlimit:4" transform="scale(.61538)"/></svg>